<svg width="250" height="51" viewBox="0 0 250 51" fill="none" xmlns="http://www.w3.org/2000/svg">
<path d="M8.34668 33.293C8.34668 34.4688 8.39453 35.3711 8.49023 36H3.32227V6.67383H8.34668V24.6387L17.7188 14.5693H23.8096L15.7295 23.0801L20.3438 29.376C21.3418 30.9619 22.0938 32.124 22.5996 32.8623L23.9531 34.7695C24.3633 35.3027 24.7051 35.7129 24.9785 36H21.7383C20.5352 36 19.5029 36.1025 18.6416 36.3076L12.2432 26.9561L8.34668 31.0986V33.293ZM25.1647 8.45801C26.2585 6.74902 27.4001 5.24512 28.5895 3.94629L32.9987 7.41211C32.4108 8.13672 31.8639 8.84766 31.3581 9.54492C31.3581 9.54492 30.8317 10.29 29.779 11.7803L25.1647 8.45801ZM30.5583 33.7031C30.5583 34.8789 30.5856 35.6445 30.6403 36H25.4313V14.5693H30.5583V33.7031ZM40.014 35.5693V41.5986C40.014 42.7744 40.0414 43.54 40.0961 43.8955H34.9896V14.5693H40.014V15.9023C41.6683 14.7402 43.2543 14.1592 44.7718 14.1592C46.2894 14.1592 47.6361 14.3711 48.8119 14.7949C49.9877 15.2188 51.0199 15.875 51.9086 16.7637C53.8636 18.6914 54.8412 21.4395 54.8412 25.0078C54.8412 27.373 54.2875 29.4854 53.18 31.3447C52.2367 32.917 50.931 34.1748 49.263 35.1182C47.7865 35.9521 46.1869 36.3691 44.4642 36.3691C42.7416 36.3691 41.2582 36.1025 40.014 35.5693ZM40.014 30.4014C41.0531 31.2764 42.3998 31.7139 44.0541 31.7139C46.7611 31.7139 48.5111 30.4082 49.3041 27.7969C49.5775 26.9082 49.7142 25.958 49.7142 24.9463C49.7142 23.9209 49.6185 23.1074 49.4271 22.5059C49.2357 21.8906 48.9828 21.3643 48.6683 20.9268C48.3675 20.4756 48.0257 20.1064 47.6429 19.8193C47.2601 19.5186 46.8705 19.2793 46.474 19.1016C45.7767 18.7871 45.0589 18.6299 44.3207 18.6299C43.5824 18.6299 42.8168 18.8008 42.0238 19.1426C41.2308 19.4844 40.5609 19.9424 40.014 20.5166V30.4014ZM62.8204 35.5693V41.5986C62.8204 42.7744 62.8477 43.54 62.9024 43.8955H57.7959V14.5693H62.8204V15.9023C64.4746 14.7402 66.0606 14.1592 67.5782 14.1592C69.0957 14.1592 70.4424 14.3711 71.6182 14.7949C72.794 15.2188 73.8262 15.875 74.7149 16.7637C76.67 18.6914 77.6475 21.4395 77.6475 25.0078C77.6475 27.373 77.0938 29.4854 75.9864 31.3447C75.043 32.917 73.7373 34.1748 72.0694 35.1182C70.5928 35.9521 68.9932 36.3691 67.2705 36.3691C65.5479 36.3691 64.0645 36.1025 62.8204 35.5693ZM62.8204 30.4014C63.8594 31.2764 65.2061 31.7139 66.8604 31.7139C69.5674 31.7139 71.3174 30.4082 72.1104 27.7969C72.3838 26.9082 72.5205 25.958 72.5205 24.9463C72.5205 23.9209 72.4248 23.1074 72.2334 22.5059C72.042 21.8906 71.7891 21.3643 71.4746 20.9268C71.1739 20.4756 70.8321 20.1064 70.4493 19.8193C70.0664 19.5186 69.6768 19.2793 69.2803 19.1016C68.583 18.7871 67.8653 18.6299 67.127 18.6299C66.3887 18.6299 65.6231 18.8008 64.8301 19.1426C64.0371 19.4844 63.3672 19.9424 62.8204 20.5166V30.4014ZM93.1325 34.1338C91.3825 35.583 89.4753 36.3076 87.4109 36.3076C85.196 36.3076 83.4597 35.5625 82.2019 34.0723C80.9987 32.623 80.3972 30.6338 80.3972 28.1045V19.9629C80.3972 17.2285 80.3357 15.6631 80.2126 15.2666C80.1032 14.8564 80.0212 14.5967 79.9665 14.4873C80.5954 14.542 81.2517 14.5693 81.9353 14.5693H83.6374C84.0886 14.5693 84.6833 14.5488 85.4216 14.5078V26.3818C85.4216 29.1982 86.1872 30.832 87.7185 31.2832C88.1833 31.4199 88.6892 31.4883 89.2361 31.4883C90.8493 31.4883 92.1482 30.9004 93.1325 29.7246V14.5693H98.2185V33.375C98.2185 34.5781 98.2732 35.4531 98.3825 36H93.1325V34.1338ZM130.07 34.8516C128.334 35.8223 126.598 36.3076 124.861 36.3076C123.125 36.3076 121.607 36.0342 120.309 35.4873C119.01 34.9404 117.902 34.1885 116.986 33.2314C115.1 31.2627 114.156 28.7061 114.156 25.5615C114.156 22.3076 115.25 19.6006 117.438 17.4404C119.639 15.2529 122.455 14.1592 125.887 14.1592C126.94 14.1592 127.972 14.2959 128.983 14.5693V5.44336H134.008V27.3662C134.008 29.1846 134.09 30.374 134.254 30.9346C134.432 31.4951 134.623 31.9053 134.828 32.165C135.047 32.4248 135.32 32.6709 135.649 32.9033L131.793 36.3076C131.082 35.9248 130.508 35.4395 130.07 34.8516ZM125.825 31.5908C126.974 31.5908 128.026 31.3721 128.983 30.9346V19.5732C128.026 19.1768 126.987 18.9785 125.866 18.9785C124.745 18.9785 123.781 19.1289 122.975 19.4297C122.182 19.7305 121.498 20.1475 120.924 20.6807C119.721 21.8018 119.119 23.2578 119.119 25.0488C119.119 27.0039 119.666 28.5625 120.76 29.7246C121.936 30.9688 123.624 31.5908 125.825 31.5908ZM137.229 25.459C137.229 23.8594 137.503 22.376 138.05 21.0088C138.596 19.6416 139.369 18.4453 140.367 17.4199C142.5 15.2461 145.289 14.1592 148.734 14.1592C151.646 14.1592 153.984 15.123 155.748 17.0508C157.484 18.9102 158.352 21.248 158.352 24.0645C158.352 25.1445 158.27 25.8828 158.106 26.2793C156.739 26.6621 153.957 26.8535 149.76 26.8535H142.541C142.896 28.3164 143.723 29.458 145.022 30.2783C146.321 31.085 148.01 31.4883 150.088 31.4883C152.261 31.4883 154.128 31.0986 155.686 30.3193C156.096 30.1143 156.404 29.9229 156.609 29.7451C156.582 30.3193 156.548 30.9072 156.507 31.5088L156.281 34.708C155.242 35.4189 153.56 35.9111 151.236 36.1846C150.553 36.2666 149.896 36.3076 149.267 36.3076C145.795 36.3076 142.924 35.2959 140.654 33.2725C138.371 31.2354 137.229 28.6309 137.229 25.459ZM152.897 22.875C152.337 19.9355 150.737 18.4658 148.098 18.4658C146.02 18.4658 144.441 19.3613 143.361 21.1523C143.033 21.6992 142.78 22.3008 142.602 22.957C142.93 22.9707 143.334 22.9844 143.812 22.998H145.33C145.836 23.0117 146.321 23.0186 146.786 23.0186H147.955C148.652 23.0186 149.336 23.0117 150.006 22.998L151.687 22.9365C152.138 22.9229 152.542 22.9023 152.897 22.875ZM178.535 15.3486C180.067 14.5557 181.632 14.1592 183.232 14.1592C184.831 14.1592 186.205 14.4121 187.354 14.918C188.516 15.4102 189.534 16.1211 190.409 17.0508C192.31 19.1152 193.26 21.7266 193.26 24.8848C193.26 28.3438 192.228 31.1328 190.163 33.252C188.181 35.2891 185.713 36.3076 182.76 36.3076C180.162 36.3076 178.023 35.6309 176.341 34.2773C174.454 32.7461 173.511 30.6338 173.511 27.9404V5.48438H178.535V15.3486ZM178.535 27.8789C178.535 30.2852 180.032 31.4883 183.026 31.4883C184.489 31.4883 185.72 30.8457 186.718 29.5605C187.73 28.248 188.235 26.6143 188.235 24.6592C188.235 22.6904 187.702 21.207 186.636 20.209C185.679 19.3203 184.394 18.876 182.78 18.876C181.81 18.876 180.736 19.2041 179.561 19.8604C179.192 20.0654 178.85 20.291 178.535 20.5371V27.8789ZM200.849 33.7031C200.849 34.8789 200.877 35.6445 200.931 36H195.722V5.44336H200.849V33.7031ZM203.394 25.3975C203.394 23.8936 203.647 22.458 204.153 21.0908C204.672 19.71 205.411 18.5068 206.368 17.4814C208.459 15.2666 211.173 14.1592 214.509 14.1592C217.832 14.1592 220.47 15.2051 222.425 17.2969C224.298 19.293 225.235 21.8838 225.235 25.0693C225.235 28.2549 224.271 30.8936 222.343 32.9854C220.306 35.2002 217.606 36.3076 214.243 36.3076C210.77 36.3076 208.049 35.2207 206.081 33.0469C204.29 31.0645 203.394 28.5146 203.394 25.3975ZM208.377 25.2744C208.377 26.1357 208.521 26.9697 208.808 27.7764C209.095 28.583 209.505 29.2734 210.039 29.8477C211.173 31.0918 212.664 31.7139 214.509 31.7139C216.218 31.7139 217.565 31.1055 218.549 29.8887C219.506 28.7129 219.985 27.1816 219.985 25.2949C219.985 23.3809 219.493 21.8359 218.508 20.6602C217.456 19.4023 216.013 18.7734 214.181 18.7734C212.322 18.7734 210.866 19.4434 209.813 20.7832C208.856 22.0137 208.377 23.5107 208.377 25.2744ZM233.481 30.2988C232.975 30.9688 232.722 31.502 232.722 31.8984C232.722 32.2812 232.783 32.582 232.906 32.8008C233.029 33.0059 233.296 33.2041 233.706 33.3955C234.609 33.8193 236.092 34.1953 238.156 34.5234C240.221 34.8379 241.834 35.2344 242.996 35.7129C244.172 36.1914 245.122 36.7793 245.847 37.4766C247.2 38.8027 247.877 40.6826 247.877 43.1162C247.877 45.5498 247.023 47.416 245.314 48.7148C243.605 50.0273 241.069 50.6836 237.705 50.6836C234.315 50.6836 231.58 49.9453 229.502 48.4688C227.424 46.9922 226.358 45.0303 226.303 42.583C226.221 39.7393 227.335 37.6816 229.646 36.4102C229.017 35.8906 228.593 35.2822 228.374 34.585C228.169 33.874 228.067 33.0674 228.067 32.165C228.067 30.6475 228.73 29.3623 230.056 28.3096C228.511 26.8467 227.738 25.0283 227.738 22.8545C227.738 20.4209 228.613 18.3838 230.363 16.7432C232.209 15.0205 234.602 14.1592 237.541 14.1592C239.086 14.1592 240.535 14.4463 241.889 15.0205C243.666 14.2686 244.972 13.6123 245.806 13.0518C246.64 12.4775 247.173 12.0605 247.405 11.8008L247.528 11.8213C247.652 12.1494 247.795 12.6143 247.959 13.2158L248.328 14.6924C248.656 15.9092 248.855 16.7432 248.923 17.1943C248.321 17.8506 247.262 18.3154 245.744 18.5889C246.332 19.7236 246.626 20.9268 246.626 22.1982C246.626 23.4697 246.407 24.625 245.97 25.6641C245.532 26.6895 244.91 27.5918 244.104 28.3711C242.313 30.0527 240.029 30.8936 237.254 30.8936C235.901 30.8936 234.643 30.6953 233.481 30.2988ZM232.947 21.0703C232.756 21.5625 232.66 22.0615 232.66 22.5674C232.66 23.0732 232.763 23.5586 232.968 24.0234C233.187 24.4883 233.501 24.9053 233.911 25.2744C234.827 26.0947 236.024 26.5049 237.5 26.5049C238.621 26.5049 239.592 26.1289 240.412 25.377C241.274 24.5566 241.704 23.5723 241.704 22.4238C241.704 21.2617 241.315 20.3252 240.535 19.6143C239.756 18.9033 238.683 18.5479 237.316 18.5479C235.06 18.5479 233.604 19.3887 232.947 21.0703ZM237.972 46.3359C241.335 46.3359 243.017 45.1602 243.017 42.8086C243.017 41.6875 242.47 40.7852 241.376 40.1016C240.146 39.3223 238.033 38.7139 235.039 38.2764L233.973 38.0918C233.07 38.5703 232.407 39.1855 231.984 39.9375C231.56 40.6895 231.348 41.4004 231.348 42.0703C231.361 42.7539 231.526 43.3418 231.84 43.834C232.154 44.3262 232.592 44.7568 233.152 45.126C234.397 45.9326 236.003 46.3359 237.972 46.3359Z" fill="black"/>
</svg>
